<svg xmlns="http://www.w3.org/2000/svg" viewBox="0 0 1976.66 566"><defs><style>.cls-1{fill:#009688;}.cls-2{fill:#fff;}</style></defs><title>logo_v</title><g id="Camada_2" data-name="Camada 2"><g id="Camada_1-2" data-name="Camada 1"><g id="xuawrQ.tif"><path class="cls-1" d="M566,126c-2-.14-4-.4-5.94-.4q-277.06,0-554.12,0c-2,0-4,.26-5.94.4V18C2.43,13.85,4.24,9.11,7.47,5.73,10.1,3,14.43,1.85,18,0H64c-.12,16.29-.39,32.59-.25,48.87,0,4.73,4.53,8.37,9.52,8.49q9.72.24,19.47,0c5-.12,9.47-3.77,9.51-8.49.14-16.28-.13-32.58-.25-48.87h62c-.12,16.29-.39,32.59-.25,48.87.05,4.73,4.53,8.37,9.52,8.49q9.72.24,19.47,0c5-.12,9.47-3.77,9.51-8.49.14-16.28-.13-32.58-.25-48.87h62c-.12,16.29-.39,32.59-.25,48.87.05,4.73,4.53,8.37,9.52,8.49q9.72.24,19.47,0c5-.12,9.47-3.77,9.51-8.49.14-16.28-.13-32.58-.25-48.87h62c-.12,16.29-.39,32.59-.25,48.87.05,4.73,4.53,8.37,9.52,8.49q9.72.24,19.47,0c5-.12,9.47-3.77,9.51-8.49.14-16.28-.13-32.58-.25-48.87h62c-.12,16.29-.39,32.59-.25,48.87.05,4.73,4.53,8.37,9.52,8.49q9.72.24,19.47,0c5-.12,9.47-3.77,9.51-8.49.14-16.28-.13-32.58-.25-48.87h46c3.57,1.85,7.9,3,10.53,5.73,3.23,3.38,5,8.12,7.47,12.27Z"/></g><path class="cls-2" d="M0,126H566a0,0,0,0,1,0,0V546a20,20,0,0,1-20,20H20A20,20,0,0,1,0,546V126A0,0,0,0,1,0,126Z"/><g id="C1fgPP.tif"><path class="cls-1" d="M370,390.12c-33.66,97.65-140.58,101.77-166.68,23.13C167.5,296,269.72,179.17,315.61,243.35c53.16-29.59,6.06,76.55,2.59,94.52C276,353,305.45,299.44,301.45,284c-.44-14.88-6.54-28.7-24.29-20.4-46.8,19.71-52.44,107.8-42,136.74,29.32,65,94.86,32.14,112.91-20.08C355.25,372,371.28,378.32,370,390.12Z"/></g><path class="cls-2" d="M831.2,319.56a77.92,77.92,0,0,0,6.92-34.46,37.39,37.39,0,0,0-3.4-14.75q-3-6.14-9.53-6.39a42.35,42.35,0,0,0-22.06,10.83A71.53,71.53,0,0,0,788.25,295a119.46,119.46,0,0,0-9.13,25.06,231.89,231.89,0,0,0-4.83,25.32,127.12,127.12,0,0,0-1,16.84A109,109,0,0,0,774.68,380a72,72,0,0,0,4.83,16.71,46.52,46.52,0,0,0,9.27,14.1,43,43,0,0,0,14.48,9.79q8.63,3.66,20.63,3.65a51.57,51.57,0,0,0,13.18-1.83,42.55,42.55,0,0,0,14-6.91,69,69,0,0,0,14.09-14.36q7.05-9.27,13.58-24.41,2.35-5.22,6.79-6.4a13.4,13.4,0,0,1,8.48.4,16,16,0,0,1,6.79,5A7.33,7.33,0,0,1,902.2,383q-12.53,32.37-32.63,50.64a80.11,80.11,0,0,1-47.51,20.88q-16.44,1.58-29.5-2.74A64.37,64.37,0,0,1,770,439.12,72.61,72.61,0,0,1,754.06,419a103,103,0,0,1-9.66-25.19,138.28,138.28,0,0,1-3.79-27.67,142.6,142.6,0,0,1,1.57-27.54,220.34,220.34,0,0,1,13.44-48.82,151.24,151.24,0,0,1,12.27-23.89,89.14,89.14,0,0,1,16.58-19.58,60.85,60.85,0,0,1,21.28-12.13q11.87-3.93,26.49-1.83a28.23,28.23,0,0,1,8.36,2.35,19.64,19.64,0,0,1,5.09,3.52,18.56,18.56,0,0,1,3.26,4.44,54.8,54.8,0,0,0,2.87,4.83,19.17,19.17,0,0,1,9.79-5,13.15,13.15,0,0,1,8.88,1.44,12.17,12.17,0,0,1,5.35,7.17q1.56,5-.79,12-4.95,17-8.09,28.07t-5.09,18.66q-1.95,7.58-3.26,12.53t-2.35,9.66a9.54,9.54,0,0,1-6.4,5.22,14.92,14.92,0,0,1-9.13-.26,15.73,15.73,0,0,1-7.71-5.87C830.94,328.3,830.32,324.43,831.2,319.56Z"/><path class="cls-2" d="M915,447.21q-15.91,0-25.19-8.87T876.85,415.5a91.23,91.23,0,0,1-2.22-30.94,136.11,136.11,0,0,1,22.19-63.43q9.27-13.85,21.28-21.15a43.14,43.14,0,0,1,26.23-6.26q14.24,1,29.63,14.35a8.06,8.06,0,0,1,6.79-5.61A19.2,19.2,0,0,1,999.54,310q3.39,4.58,1.31,11.1-1.83,7.31-4.7,17.88t-5.61,22.06q-2.74,11.49-4.7,23.1A116.34,116.34,0,0,0,984,405.05q.13,9.27,2.74,15.41a10.18,10.18,0,0,0,9.14,6.65q7.83.52,14.75-5.35A59.17,59.17,0,0,0,1022.91,407a110.52,110.52,0,0,0,9-18.79,86.7,86.7,0,0,0,4.69-17.23q1.83-6.8,6.14-8a11.22,11.22,0,0,1,8.35.92,15.91,15.91,0,0,1,6.53,6.39q2.47,4.32.65,8.23a118.54,118.54,0,0,1-7.31,23.88A130.79,130.79,0,0,1,1037,428a94.45,94.45,0,0,1-19.19,20.49q-10.71,8.36-23,8.35a36,36,0,0,1-11.36-1.95,37.71,37.71,0,0,1-11.23-6.14,42.3,42.3,0,0,1-9.52-10.7,45.28,45.28,0,0,1-6-15.93q-2.34,2.88-6.52,7.18a71.08,71.08,0,0,1-9.66,8.22,66.42,66.42,0,0,1-12,6.79A33.28,33.28,0,0,1,915,447.21Zm-.26-32.63a20.81,20.81,0,0,0,14.75-3.91A45,45,0,0,0,940.81,398a87,87,0,0,0,8.35-17.89q3.39-9.92,5.61-19.18t3.53-17q1.31-7.7,1.83-11.1-8.37-7-15.67-7.31A21.53,21.53,0,0,0,931,329.61a39,39,0,0,0-10.83,12.14,93.21,93.21,0,0,0-8,17.1,110.09,110.09,0,0,0-4.83,18.92A101.44,101.44,0,0,0,906,395.53a35.63,35.63,0,0,0,2.35,13.31C909.78,412.32,911.92,414.24,914.7,414.58Z"/><path class="cls-2" d="M1108.89,225.58a19.75,19.75,0,0,1,14.36,12.66q3.91,10,2.87,24.8a149.8,149.8,0,0,1-6.52,32.76,288.86,288.86,0,0,1-14.23,36.94,369.07,369.07,0,0,1-20,37.33,331,331,0,0,1-23.49,33.81q2.08,9.66,6.52,14a16,16,0,0,0,10.31,4.69,26.16,26.16,0,0,0,12.4-2.48A59,59,0,0,0,1104.2,412a103.31,103.31,0,0,0,15.53-15.79,82.55,82.55,0,0,0,11.09-17.88c.52-1.92,2.13-3.22,4.83-3.92a18.67,18.67,0,0,1,8.49-.13,16.81,16.81,0,0,1,7.83,3.92q3.39,3,2.87,8.22a127.16,127.16,0,0,1-14,25.71,105.76,105.76,0,0,1-18.14,20q-15.4,13.32-31.33,17.49-15.66,4.19-27.67-.26a44.62,44.62,0,0,1-20.1-14.88q-8.1-10.44-12.27-25.71a125,125,0,0,1-4.18-33q0-10.71.66-22.59t2.22-24q1.56-12.13,3.91-24.15a197.51,197.51,0,0,1,6-23.23,154.94,154.94,0,0,1,10.7-26A72.65,72.65,0,0,1,1065.43,236a46.33,46.33,0,0,1,19.32-10.83Q1095.58,222.19,1108.89,225.58Zm-17,30q-3.14-.25-6.53,3.4a45.76,45.76,0,0,0-6.66,9.92,127.26,127.26,0,0,0-6.39,14.75q-3.13,8.47-5.75,17.62-2.86,9.39-5.09,19t-3.91,18q-1.71,8.36-2.61,15a80.71,80.71,0,0,0-.92,10.05q3.66-5,7.7-11.75t8.1-14.49q4-7.69,7.83-16.05t6.92-16.45q3.92-9.66,6.65-18.4a124.28,124.28,0,0,0,3.92-15.41,34.42,34.42,0,0,0,.52-10.83Q1095.05,255.87,1091.93,255.6Z"/><path class="cls-2" d="M1217.2,326.61a100,100,0,0,1-4.7,26.23,77.26,77.26,0,0,1-12.27,23.76,62.61,62.61,0,0,1-19.71,17q-11.61,6.39-26.49,5.35a91.63,91.63,0,0,0,1.82,15.66,36.85,36.85,0,0,0,5.09,12.92,19.06,19.06,0,0,0,9.53,7.58q6,2.22,15.14-.66a56.52,56.52,0,0,0,17.49-8.61,83.53,83.53,0,0,0,15-13.84,89.74,89.74,0,0,0,11.23-16.57,78.47,78.47,0,0,0,6.66-17.1q1-4.44,5-5.49a14.82,14.82,0,0,1,8.22.27,16.12,16.12,0,0,1,7.31,4.56,7.68,7.68,0,0,1,2,7.44q-5.75,15.15-11.36,26.89a121.74,121.74,0,0,1-12.4,20.76A75.14,75.14,0,0,1,1219.42,448a79.21,79.21,0,0,1-20,10.44q-15.4,5.47-28.46,4.83a45.09,45.09,0,0,1-22.71-6.92A43.12,43.12,0,0,1,1133,438.6q-5.61-11.49-6.4-27.93-.52-7.83-.39-18.93t1.44-23.23a210.22,210.22,0,0,1,4.18-24.67,120.34,120.34,0,0,1,7.83-23.37,74,74,0,0,1,12.4-19.05,42.54,42.54,0,0,1,18.14-11.88,41,41,0,0,1,17.49-2.35,30.83,30.83,0,0,1,15.27,5.48,32.19,32.19,0,0,1,10.57,13.18Q1217.47,314.34,1217.2,326.61Zm-32.89-6.79a6.54,6.54,0,0,0-7.18-.39,20.39,20.39,0,0,0-6.66,6.53,50.24,50.24,0,0,0-5.48,10.83,106.13,106.13,0,0,0-3.92,12.92q-1.56,6.66-2.35,12.66a37.21,37.21,0,0,0-.26,9.66q12-2.36,19.06-9.92a42.78,42.78,0,0,0,9.79-16.18,38.24,38.24,0,0,0,1.83-16.19C1188.52,324.7,1186.92,321.39,1184.31,319.82Z"/><path class="cls-2" d="M1233.35,325.3q1.31-8.61,6.27-12.53a14.8,14.8,0,0,1,10.44-3.52,14.49,14.49,0,0,1,9.79,5.09q4.31,4.7,4.57,13.31v5.75a163,163,0,0,1,10.44-12.53,82.48,82.48,0,0,1,12.4-11.1,45.28,45.28,0,0,1,14.75-7,38.13,38.13,0,0,1,17.49-.39,29.59,29.59,0,0,1,15.53,8.22,38.59,38.59,0,0,1,8.75,14.88,73.38,73.38,0,0,1,3.39,19.19,189.11,189.11,0,0,1-.13,21q-.66,10.56-2,20.62t-2.22,17.88a91.91,91.91,0,0,0-.78,12.66q.14,4.83,2.48,5.09a13.52,13.52,0,0,0,8.49-2.09,33.82,33.82,0,0,0,9.26-8.48,81.65,81.65,0,0,0,9.14-14.88,109.36,109.36,0,0,0,7.57-21.28q1.31-5.48,5.61-6.13a13.48,13.48,0,0,1,8.49,1.57,19.08,19.08,0,0,1,7.05,6.65,10.2,10.2,0,0,1,1.3,9.14,195.74,195.74,0,0,1-11.62,27.8,106.3,106.3,0,0,1-14.75,22.06A56.07,56.07,0,0,1,1357.48,450a31,31,0,0,1-20,2.47q-10.44-2.08-16-8a33.08,33.08,0,0,1-8-14.09,59.31,59.31,0,0,1-2.09-18,197.7,197.7,0,0,1,1.56-20q1.3-10.17,2.88-19.84a139,139,0,0,0,1.82-17.49,42.74,42.74,0,0,0-1.3-13.18,9,9,0,0,0-6.79-6.66q-7-1.82-13.57,2.87t-12.14,13.71a130.67,130.67,0,0,0-10.31,20.75,226.66,226.66,0,0,0-8.1,24,239.89,239.89,0,0,0-5.35,23.89,151.16,151.16,0,0,0-2.22,19.71q-.78,3.65-5.22,6.39a22.25,22.25,0,0,1-9.66,3.26,17.12,17.12,0,0,1-10-2.08q-4.83-2.61-6.13-9.92a78.59,78.59,0,0,1,.26-10.84q.53-6.12,1.56-18t2.22-31.72Q1232.06,357.42,1233.35,325.3Z"/><path class="cls-2" d="M1377.16,397.35a87,87,0,0,1,.92-26.36,91,91,0,0,1,8.48-25.32,77.33,77.33,0,0,1,15-20.5,51.55,51.55,0,0,1,20.49-12.4,49.07,49.07,0,0,1,19.71-1.82q10.57,1,22.32,7.83,1.58-5.75,3.92-16.71t5.09-23.5q2.75-12.52,5.35-24.93t4.18-21.53q1-6.27,5.74-8.62a14.72,14.72,0,0,1,9.79-1.3,16.85,16.85,0,0,1,8.88,5q3.78,3.91,2.74,10.44-1.83,12.53-5.09,30.41t-6.53,37.72q-3.27,19.84-5.87,39.68a340.15,340.15,0,0,0-3,36.29q-.39,16.44,1.83,27.8t8.48,14.23q3.39,1.56,7.58-.91a29,29,0,0,0,8.09-7.71,50.56,50.56,0,0,0,6.78-13.05,59.24,59.24,0,0,0,3.4-17.23c1.21-4.7,3.22-7.78,6-9.26a10.69,10.69,0,0,1,8.23-1.05,12.42,12.42,0,0,1,6.78,5.09,11.41,11.41,0,0,1,1.7,9.14,79.58,79.58,0,0,1-4.18,20,88.44,88.44,0,0,1-10.18,21,65.11,65.11,0,0,1-15.66,16.71,33.36,33.36,0,0,1-20.36,6.79,23.47,23.47,0,0,1-12.53-3.53,43.75,43.75,0,0,1-10.18-8.61,53.24,53.24,0,0,1-7.44-11,54.33,54.33,0,0,1-4.31-10.84,63.5,63.5,0,0,1-15,15.14,49.29,49.29,0,0,1-17.36,7.83,41.81,41.81,0,0,1-18,.26,40.2,40.2,0,0,1-16.32-7.43,47.13,47.13,0,0,1-12.66-15Q1378.73,410.67,1377.16,397.35Zm82.49-45.42q-7.31-7.05-14.48-8.75a25.23,25.23,0,0,0-13.71.4,27.07,27.07,0,0,0-10,6.13,44.3,44.3,0,0,0-8,10.18,51.14,51.14,0,0,0-5.22,12.92,49.94,49.94,0,0,0-1.57,14.36q.52,14.88,7.44,21t15.27,4.56q6.8-1.29,13.18-7.43t9.79-17.1c.87-2.79,1.74-5.83,2.62-9.14s1.65-6.61,2.34-9.92,1.26-6.48,1.7-9.53A56.65,56.65,0,0,0,1459.65,351.93Z"/><path class="cls-2" d="M1528.28,449.56a9.11,9.11,0,0,1-7.44,4.83,19.61,19.61,0,0,1-9.4-1.56,22.43,22.43,0,0,1-7.7-5.36c-2.09-2.25-2.7-4.43-1.83-6.52q1.83-4.44,4.7-11.49t7.05-20.49q4.18-13.44,9.53-35.5t12.14-56.26q1-8.35,5.87-12a14.8,14.8,0,0,1,10.57-3.13,19,19,0,0,1,6.53,1.7,14.65,14.65,0,0,1,5.35,4.17,17.84,17.84,0,0,1,3.27,6.53,17.58,17.58,0,0,1,0,8.48,76.35,76.35,0,0,0,9.26,9.27,52.7,52.7,0,0,0,9.66,6.4,77.24,77.24,0,0,0,11,4.56q5.87,2,13.44,4.05,5.22,3.4,6.79,6.79a12.68,12.68,0,0,1,1,7.18,32.12,32.12,0,0,1-2.35,8.09q-1.83,4.31-3.39,9.27c-.52,1.91-1.14,4.7-1.83,8.35s-1.26,7.7-1.7,12.14-.74,9-.91,13.7a88,88,0,0,0,.39,12.93,32.91,32.91,0,0,0,2.48,9.92q1.83,4,5.22,4.57,11,2.08,20.63-13.06t18.53-49.6q1.3-6.25,5.61-8.35a14.38,14.38,0,0,1,8.88-1.31,14.69,14.69,0,0,1,7.83,3.92,7.5,7.5,0,0,1,2.22,7.57q-1.56,9.66-4.7,21.41a163,163,0,0,1-8.22,23.36A134.24,134.24,0,0,1,1654.63,446a64.72,64.72,0,0,1-16.45,16.84,37.59,37.59,0,0,1-15.27,6.39,35.59,35.59,0,0,1-16.05-.78,36.38,36.38,0,0,1-14.23-7.83,31.87,31.87,0,0,1-9.27-14.49,98.59,98.59,0,0,1-5-36.94,200.61,200.61,0,0,1,5.74-37.72q-6-2.61-13.31-5.61A56.73,56.73,0,0,1,1558.3,359q-9.13,28.72-14.36,45.68T1535.59,431c-2.09,6.26-3.62,10.62-4.57,13.05A26.22,26.22,0,0,1,1528.28,449.56Z"/><path class="cls-2" d="M1666.34,309.64q5.22-5.22,10.71-5.87a15,15,0,0,1,9.66,1.82,14.6,14.6,0,0,1,6.13,7.31,16.12,16.12,0,0,1,.39,10.58,84.75,84.75,0,0,0-5,14.35q-2.34,8.88-4.17,18.8T1681.22,377a168,168,0,0,0-.91,19.06,66,66,0,0,0,1.7,14.88q1.56,6.26,5,7.83a10.7,10.7,0,0,0,7.18.65q3.78-.92,8.09-5.61t9.27-14.1A185.92,185.92,0,0,0,1722,374.38a8.93,8.93,0,0,1,5.87-4.83,12.29,12.29,0,0,1,7.31.39,10.52,10.52,0,0,1,5.48,4.57,9.32,9.32,0,0,1,.66,7.7,164.85,164.85,0,0,1-7.71,21.93,120.09,120.09,0,0,1-13.44,24A68.27,68.27,0,0,1,1701.59,446a27.07,27.07,0,0,1-22.71,3.26,29.74,29.74,0,0,1-17.23-12.66,63.17,63.17,0,0,1-8.88-22.58,122.82,122.82,0,0,1-2.09-28.32,250,250,0,0,1,2.74-29.63,222.25,222.25,0,0,1,5.75-26.76A116.33,116.33,0,0,1,1666.34,309.64Zm7.58-23.76q-5.24-7-4.05-13.57a15.6,15.6,0,0,1,5.74-10.05,15.26,15.26,0,0,1,11-3q6.39.53,11.87,7.83,3.66,6,2,11.88a18.37,18.37,0,0,1-6,9.39,15.59,15.59,0,0,1-10.18,3.53Q1678.35,291.89,1673.92,285.88Z"/><path class="cls-2" d="M1805.45,326.61a99.56,99.56,0,0,1-4.7,26.23,77,77,0,0,1-12.26,23.76,62.61,62.61,0,0,1-19.71,17q-11.62,6.39-26.5,5.35a90.63,90.63,0,0,0,1.83,15.66,36.66,36.66,0,0,0,5.09,12.92,19,19,0,0,0,9.53,7.58q6,2.22,15.14-.66a56.52,56.52,0,0,0,17.49-8.61,84.21,84.21,0,0,0,15-13.84,90.18,90.18,0,0,0,11.22-16.57,78.47,78.47,0,0,0,6.66-17.1c.69-3,2.35-4.79,5-5.49a14.82,14.82,0,0,1,8.22.27,16.12,16.12,0,0,1,7.31,4.56,7.68,7.68,0,0,1,2,7.44Q1841,400.23,1835.34,412a121.1,121.1,0,0,1-12.4,20.76A74.64,74.64,0,0,1,1807.67,448a79,79,0,0,1-20,10.44q-15.4,5.47-28.45,4.83a45,45,0,0,1-22.71-6.92,43.06,43.06,0,0,1-15.28-17.75q-5.61-11.49-6.39-27.93-.52-7.83-.39-18.93t1.43-23.23a210.22,210.22,0,0,1,4.18-24.67,120.34,120.34,0,0,1,7.83-23.37,74,74,0,0,1,12.4-19.05,42.6,42.6,0,0,1,18.14-11.88,41,41,0,0,1,17.49-2.35,30.83,30.83,0,0,1,15.28,5.48,32.27,32.27,0,0,1,10.57,13.18Q1805.72,314.34,1805.45,326.61Zm-32.89-6.79a6.54,6.54,0,0,0-7.18-.39,20.27,20.27,0,0,0-6.65,6.53,50.25,50.25,0,0,0-5.49,10.83,106.1,106.1,0,0,0-3.91,12.92,125.34,125.34,0,0,0-2.35,12.66,37.21,37.21,0,0,0-.26,9.66q12-2.36,19-9.92a42.66,42.66,0,0,0,9.79-16.18,38.09,38.09,0,0,0,1.83-16.19Q1776.48,322.18,1772.56,319.82Z"/><path class="cls-2" d="M1825,449.56a9.11,9.11,0,0,1-7.44,4.83,19.61,19.61,0,0,1-9.4-1.56,22.43,22.43,0,0,1-7.7-5.36c-2.09-2.25-2.69-4.43-1.83-6.52q1.83-4.44,4.7-11.49t7.05-20.49q4.18-13.44,9.53-35.5t12.14-56.26q1-8.35,5.87-12a14.82,14.82,0,0,1,10.58-3.13,19,19,0,0,1,6.52,1.7,14.65,14.65,0,0,1,5.35,4.17,17.84,17.84,0,0,1,3.27,6.53,17.58,17.58,0,0,1,0,8.48,77.07,77.07,0,0,0,9.26,9.27,53,53,0,0,0,9.66,6.4,77.73,77.73,0,0,0,11,4.56q5.87,2,13.44,4.05,5.22,3.4,6.79,6.79a12.68,12.68,0,0,1,1,7.18,32.12,32.12,0,0,1-2.35,8.09q-1.83,4.31-3.39,9.27c-.52,1.91-1.13,4.7-1.83,8.35s-1.26,7.7-1.69,12.14-.75,9-.92,13.7a89.44,89.44,0,0,0,.39,12.93,33.21,33.21,0,0,0,2.48,9.92q1.83,4,5.22,4.57,11,2.08,20.63-13.06t18.53-49.6q1.31-6.25,5.61-8.35a14.39,14.39,0,0,1,8.88-1.31,14.69,14.69,0,0,1,7.83,3.92,7.48,7.48,0,0,1,2.22,7.57q-1.56,9.66-4.7,21.41a163,163,0,0,1-8.22,23.36A134.24,134.24,0,0,1,1951.35,446a64.72,64.72,0,0,1-16.45,16.84,37.53,37.53,0,0,1-15.27,6.39,35.59,35.59,0,0,1-16.05-.78,36.45,36.45,0,0,1-14.23-7.83,32,32,0,0,1-9.27-14.49,98.8,98.8,0,0,1-5-36.94,200.63,200.63,0,0,1,5.75-37.72q-6-2.61-13.32-5.61A56.73,56.73,0,0,1,1855,359q-9.13,28.72-14.36,45.68T1832.31,431c-2.09,6.26-3.61,10.62-4.57,13.05A26.22,26.22,0,0,1,1825,449.56Z"/></g></g></svg>